<svg version="1.1" xmlns="http://www.w3.org/2000/svg" viewBox="0 0 590 609.171875" width="1180" height="1218.34375">
  <!-- svg-source:excalidraw -->
  
  <defs>
    <style>
      @font-face {
        font-family: "Virgil";
        src: url("https://excalidraw.com/Virgil.woff2");
      }
      @font-face {
        font-family: "Cascadia";
        src: url("https://excalidraw.com/Cascadia.woff2");
      }
    </style>
  </defs>
  <g stroke-linecap="round" transform="translate(42.78515625 137.8046875) rotate(36.32329842667217 160.150390625 75.3046875)"><path d="M114.3 2.28 C130.47 -1.21, 151.55 -0.48, 169.61 0.19 C187.67 0.85, 205.87 2.91, 222.67 6.25 C239.48 9.58, 256.89 14.23, 270.43 20.19 C283.98 26.14, 295.82 34.35, 303.94 41.97 C312.06 49.59, 317.21 57.43, 319.14 65.9 C321.07 74.37, 319.63 84.4, 315.49 92.78 C311.36 101.16, 304.09 109.19, 294.34 116.16 C284.58 123.13, 271.61 129.32, 256.95 134.6 C242.29 139.89, 224.03 145.12, 206.37 147.89 C188.71 150.65, 169.07 151.64, 150.99 151.17 C132.91 150.7, 114.69 148.66, 97.91 145.04 C81.13 141.42, 63.84 135.38, 50.32 129.44 C36.79 123.51, 25.04 116.86, 16.77 109.44 C8.5 102.02, 2.82 93.47, 0.68 84.92 C-1.46 76.36, -0.41 66.41, 3.95 58.12 C8.3 49.83, 16.8 42.27, 26.83 35.19 C36.86 28.11, 48.15 21.05, 64.13 15.65 C80.11 10.24, 111.32 4.78, 122.7 2.75 C134.07 0.73, 131.68 2.41, 132.39 3.48 M137 1.61 C153.72 -1.03, 172.8 -0.72, 190.44 1.02 C208.09 2.76, 227.32 7.54, 242.87 12.03 C258.43 16.52, 272.48 21.59, 283.76 27.99 C295.04 34.39, 304.5 42.18, 310.56 50.41 C316.61 58.64, 320.38 68.43, 320.08 77.38 C319.78 86.33, 315.18 95.93, 308.76 104.11 C302.33 112.3, 293.57 120.24, 281.52 126.5 C269.48 132.75, 252.52 137.99, 236.49 141.65 C220.47 145.3, 203.35 147.39, 185.36 148.44 C167.36 149.48, 146.39 149.22, 128.54 147.91 C110.69 146.6, 93.6 144.63, 78.27 140.59 C62.95 136.56, 48.07 130.44, 36.58 123.68 C25.09 116.93, 15.52 108.64, 9.33 100.08 C3.15 91.51, -1.04 80.92, -0.52 72.32 C0 63.72, 5.56 56.04, 12.46 48.46 C19.35 40.89, 29.19 33.61, 40.85 26.87 C52.52 20.13, 66.35 12.44, 82.43 8.03 C98.51 3.62, 128.5 1.21, 137.32 0.42 C146.14 -0.36, 135.36 1.92, 135.36 3.33" stroke="#000000" stroke-width="1" fill="none"></path></g><g stroke-linecap="round" transform="translate(196.947265625 130.7734375) rotate(136.0864439217543 160.150390625 75.3046875)"><path d="M176.72 -0.53 C194.16 -0.8, 213.31 4.4, 229.64 8.21 C245.96 12.02, 261.99 16.2, 274.66 22.32 C287.33 28.45, 298.09 37.15, 305.65 44.96 C313.21 52.77, 318.45 60.61, 320.02 69.2 C321.58 77.78, 320.05 88.16, 315.05 96.47 C310.05 104.78, 300.87 112.03, 290.01 119.06 C279.14 126.09, 265.06 133.7, 249.87 138.62 C234.69 143.55, 216.56 146.61, 198.9 148.64 C181.24 150.66, 162.15 151.68, 143.91 150.79 C125.66 149.89, 105.95 147.25, 89.41 143.27 C72.87 139.29, 57.1 133.25, 44.68 126.91 C32.25 120.57, 22.27 112.99, 14.85 105.22 C7.43 97.45, 1.74 88.72, 0.14 80.27 C-1.46 71.82, 0.1 62.81, 5.27 54.53 C10.44 46.24, 20.22 37.51, 31.14 30.57 C42.05 23.63, 55.7 17.71, 70.77 12.89 C85.85 8.06, 102.95 3.62, 121.58 1.61 C140.22 -0.4, 171.09 0.47, 182.58 0.82 C194.07 1.17, 190.76 2.53, 190.51 3.71 M189.05 2.73 C206.37 3.38, 226.09 7.37, 242 11.74 C257.92 16.12, 273.21 22.48, 284.54 28.96 C295.86 35.44, 303.79 42.66, 309.95 50.64 C316.12 58.63, 321.67 68.19, 321.51 76.86 C321.35 85.53, 315.58 94.77, 309.01 102.66 C302.44 110.55, 294.04 117.65, 282.09 124.21 C270.14 130.78, 253.51 137.89, 237.3 142.04 C221.09 146.19, 202.71 147.96, 184.85 149.12 C166.99 150.27, 147.75 150.39, 130.16 148.97 C112.56 147.54, 95.09 144.7, 79.29 140.56 C63.5 136.42, 46.93 130.75, 35.36 124.14 C23.8 117.53, 16.05 109, 9.91 100.9 C3.77 92.8, -1.59 84.07, -1.48 75.54 C-1.36 67.01, 3.79 58.23, 10.61 49.75 C17.43 41.26, 27.29 31.4, 39.45 24.64 C51.61 17.88, 67.6 13.01, 83.57 9.2 C99.55 5.39, 117.46 3.03, 135.31 1.77 C153.15 0.5, 181.76 1.27, 190.63 1.6 C199.51 1.92, 189.17 2.34, 188.55 3.73" stroke="#000000" stroke-width="1" fill="none"></path></g><g stroke-linecap="round" transform="translate(126.431640625 292.20312500000006) rotate(268.4882481134164 160.150390625 75.30468749999997)"><path d="M186.95 0.6 C204.16 0.75, 222.74 6.02, 238.66 10.26 C254.58 14.5, 270.54 19.62, 282.46 26.04 C294.38 32.46, 303.72 40.56, 310.17 48.8 C316.61 57.04, 321.08 66.69, 321.14 75.49 C321.2 84.3, 316.83 93.58, 310.54 101.63 C304.25 109.68, 295.1 117.38, 283.38 123.78 C271.66 130.19, 256 135.93, 240.23 140.06 C224.45 144.2, 206.62 146.96, 188.71 148.6 C170.8 150.24, 150.59 151.15, 132.75 149.9 C114.92 148.65, 97.59 145.4, 81.7 141.1 C65.8 136.81, 49.46 130.7, 37.38 124.12 C25.3 117.54, 15.53 109.82, 9.22 101.61 C2.91 93.41, -0.43 83.54, -0.49 74.89 C-0.55 66.24, 2.45 57.52, 8.85 49.7 C15.24 41.88, 26.13 34.66, 37.87 27.98 C49.62 21.3, 63.59 13.9, 79.3 9.6 C95.02 5.3, 113.39 3.54, 132.18 2.18 C150.97 0.81, 181.17 1.05, 192.05 1.42 C202.92 1.8, 197.83 3.26, 197.41 4.4 M107.3 5.38 C122.75 1.45, 142.93 0.6, 161 0.73 C179.06 0.85, 198.5 3.33, 215.68 6.14 C232.86 8.96, 250.17 12.41, 264.05 17.62 C277.94 22.84, 290.1 30.01, 298.97 37.43 C307.85 44.85, 314.2 53.6, 317.32 62.15 C320.45 70.7, 320.95 79.97, 317.72 88.74 C314.5 97.5, 307.39 107.45, 297.99 114.74 C288.59 122.03, 275.46 127.07, 261.33 132.48 C247.2 137.88, 230.42 144.23, 213.21 147.17 C196 150.11, 176.15 150.37, 158.08 150.11 C140.02 149.85, 121.64 148.48, 104.81 145.61 C87.98 142.74, 70.93 138.52, 57.1 132.89 C43.28 127.27, 30.93 119.22, 21.86 111.85 C12.79 104.47, 5.91 96.74, 2.71 88.64 C-0.49 80.53, -0.4 71.7, 2.64 63.23 C5.68 54.76, 11.99 45.65, 20.95 37.84 C29.92 30.03, 42.45 22.03, 56.41 16.36 C70.37 10.7, 96.04 5.61, 104.73 3.85 C113.43 2.09, 107.53 4.53, 108.57 5.83" stroke="#000000" stroke-width="1" fill="none"></path></g><g transform="translate(167.51171875 10) rotate(0 111 18)"><text x="0" y="25" font-family="Virgil, Segoe UI Emoji" font-size="28px" fill="#000000" text-anchor="start" style="white-space: pre;" direction="ltr">the zen of raft</text></g><g transform="translate(355.28125 144.80859375) rotate(0 41.5 35.5)"><text x="0" y="25.5" font-family="Virgil, Segoe UI Emoji" font-size="28px" fill="#000000" text-anchor="start" style="white-space: pre;" direction="ltr">Swarm</text><text x="0" y="61" font-family="Virgil, Segoe UI Emoji" font-size="28px" fill="#000000" text-anchor="start" style="white-space: pre;" direction="ltr">comm</text></g><g transform="translate(102.58203125 144.98828125) rotate(0 51.5 35.5)"><text x="0" y="25.5" font-family="Virgil, Segoe UI Emoji" font-size="28px" fill="#000000" text-anchor="start" style="white-space: pre;" direction="ltr">election</text><text x="0" y="61" font-family="Virgil, Segoe UI Emoji" font-size="28px" fill="#000000" text-anchor="start" style="white-space: pre;" direction="ltr">timer</text></g><g transform="translate(250 416.80859375) rotate(0 36 35.5)"><text x="0" y="25.5" font-family="Virgil, Segoe UI Emoji" font-size="28px" fill="#000000" text-anchor="start" style="white-space: pre;" direction="ltr">client</text><text x="0" y="61" font-family="Virgil, Segoe UI Emoji" font-size="28px" fill="#000000" text-anchor="start" style="white-space: pre;" direction="ltr">api</text></g><g transform="translate(10 563.171875) rotate(0 285 18)"><text x="0" y="25" font-family="Virgil, Segoe UI Emoji" font-size="28px" fill="#000000" text-anchor="start" style="white-space: pre;" direction="ltr">3 spheres of influence &lt;=&gt; 3 event loops</text></g><g transform="translate(238.453125 242.16015625) rotate(0 45.5 35.5)"><text x="0" y="25.5" font-family="Virgil, Segoe UI Emoji" font-size="28px" fill="#c92a2a" text-anchor="start" style="white-space: pre;" direction="ltr">shared</text><text x="0" y="61" font-family="Virgil, Segoe UI Emoji" font-size="28px" fill="#c92a2a" text-anchor="start" style="white-space: pre;" direction="ltr">state</text></g></svg>